{"title":"Men in Black 3 (2012).480p.BRRip.x264.[Dual Audio].6Ch.[Hindi+En","uid":7617969,"size":742607894,"categoryP":"video","categoryS":"hd___movies","magnet":"?xt=urn:btih:b299361f3bf450795a0baec9399e66ef74af30df&amp;dn=Men+in+Black+3+%282012%29.480p.BRRip.x264.%5BDual+Audio%5D.6Ch.%5BHindi%2BEn&amp;tr=udp%3A%2F%2Ftracker.openbittorrent.com%3A80&amp;tr=udp%3A%2F%2Fopen.demonii.com%3A1337&amp;tr=udp%3A%2F%2Ftracker.coppersurfer.tk%3A6969&amp;tr=udp%3A%2F%2Fexodus.desync.com%3A6969","seeders":1,"leechers":0,"uploader":"TeamExD","files":4,"time":1347253233,"description":" &lt;a href=&quot;http://img210.imageshack.us/img210/5512/exdp.jpg&quot; rel=&quot;nofollow&quot; target=&quot;_NEW&quot;&gt;http://img210.imageshack.us/img210/5512/exdp.jpg&lt;/a&gt;\nFormat                                   : Matroska\nFormat version                           : Version 2\nFile size                                : 694 MiB\nDuration                                 : 1h 45mn\nOverall bit rate                         : 916 Kbps\nMovie name                               : Men in Black 3 (2012).4800p.BRRip.x264.[Dual Audio].6Ch.[Hindi+English].by K@rtik [ExD Exclusive]\nFormat                                   : AVC\nFormat/Info                              : Advanced Video Codec\nFormat settings, ReFrames                : 5 frames\nDuration                                 : 1h 45mn\nBit rate                                 : 660 Kbps\nWidth                                    : 720 pixels\nHeight                                   : 354 pixels\nDisplay aspect ratio                     : 2.034\nFrame rate                               : 23.976 fps\nStream size                              : 486 MiB (70%)\nTitle                                    : K@rtik\nCodec ID                                 : A_AC3\nDuration                                 : 1h 45mn\nBit rate                                 : 128 Kbps\nChannel(s)                               : 2 channels\nChannel positions                        : Front: L R\nSampling rate                            : 48.0 KHz\nStream size                              : 96.9 MiB (14%)\nTitle                                    : K@rtik\nCodec ID                                 : A_AC3\nDuration                                 : 1h 45mn\nBit rate mode                            : Constant\nBit rate                                 : 128 Kbps\nChannel(s)                               : 2 channels\nChannel positions                        : Front: L R\nSampling rate                            : 48.0 KHz\nStream size                              : 96.9 MiB (14%)\nTitle                                    : K@rtik\nLanguage                                 : English &lt;a href=&quot;\nhttp://img441.imageshack.us/img441/2651/41846703.png&quot; rel=&quot;nofollow&quot; target=&quot;_NEW&quot;&gt;\nhttp://img441.imageshack.us/img441/2651/41846703.png&lt;/a&gt; &lt;a href=&quot;\nhttp://img213.imageshack.us/img213/3307/26398332.png&quot; rel=&quot;nofollow&quot; target=&quot;_NEW&quot;&gt;\nhttp://img213.imageshack.us/img213/3307/26398332.png&lt;/a&gt; &lt;a href=&quot;\nhttp://img42.imageshack.us/img42/5182/66945235.png&quot; rel=&quot;nofollow&quot; target=&quot;_NEW&quot;&gt;\nhttp://img42.imageshack.us/img42/5182/66945235.png&lt;/a&gt; &lt;a href=&quot;\nhttp://img266.imageshack.us/img266/8730/98357728.png&quot; rel=&quot;nofollow&quot; target=&quot;_NEW&quot;&gt;\nhttp://img266.imageshack.us/img266/8730/98357728.png&lt;/a&gt; &lt;a href=&quot;\nhttp://img155.imageshack.us/img155/1694/48749427.png&quot; rel=&quot;nofollow&quot; target=&quot;_NEW&quot;&gt;\nhttp://img155.imageshack.us/img155/1694/48749427.png&lt;/a&gt; &lt;a href=&quot;\nhttp://img411.imageshack.us/img411/3958/78917007.png&quot; rel=&quot;nofollow&quot; target=&quot;_NEW&quot;&gt;\nhttp://img411.imageshack.us/img411/3958/78917007.png&lt;/a&gt; &lt;a href=&quot;\nhttp://img341.imageshack.us/img341/3864/44864453.png&quot; rel=&quot;nofollow&quot; target=&quot;_NEW&quot;&gt;\nhttp://img341.imageshack.us/img341/3864/44864453.png&lt;/a&gt; &lt;a href=&quot;\nhttp://img707.imageshack.us/img707/7056/75356328.png&quot; rel=&quot;nofollow&quot; target=&quot;_NEW&quot;&gt;\nhttp://img707.imageshack.us/img707/7056/75356328.png&lt;/a&gt; &lt;a href=&quot;\nhttp://img217.imageshack.us/img217/6986/62600731.png&quot; rel=&quot;nofollow&quot; target=&quot;_NEW&quot;&gt;\nhttp://img217.imageshack.us/img217/6986/62600731.png&lt;/a&gt; &lt;a href=&quot;\nhttp://img513.imageshack.us/img513/4060/22233117.png&quot; rel=&quot;nofollow&quot; target=&quot;_NEW&quot;&gt;\nhttp://img513.imageshack.us/img513/4060/22233117.png&lt;/a&gt; &lt;a href=&quot;\nhttp://img28.imageshack.us/img28/1428/46313765.png&quot; rel=&quot;nofollow&quot; target=&quot;_NEW&quot;&gt;\nhttp://img28.imageshack.us/img28/1428/46313765.png&lt;/a&gt;\n\n\n\n\n\n\n\n ","torrent":{"xt":"urn:btih:b299361f3bf450795a0baec9399e66ef74af30df","amp;dn":"Men+in+Black+3+%282012%29.480p.BRRip.x264.%5BDual+Audio%5D.6Ch.%5BHindi%2BEn","amp;tr":["udp%3A%2F%2Ftracker.openbittorrent.com%3A80","udp%3A%2F%2Fopen.demonii.com%3A1337","udp%3A%2F%2Ftracker.coppersurfer.tk%3A6969","udp%3A%2F%2Fexodus.desync.com%3A6969"],"infoHash":"b299361f3bf450795a0baec9399e66ef74af30df","infoHashBuffer":{"type":"Buffer","data":[178,153,54,31,59,244,80,121,90,11,174,201,57,158,102,239,116,175,48,223]},"announce":[],"urlList":[]}}